HIERARCHY
ROOT Hips
{
  OFFSET -18.156 25.303 -320.390
  CHANNELS 6 Xposition Yposition Zposition Zrotation Xrotation Yrotation
  JOINT LeftUpLeg
  {
    OFFSET 7.511 -7.561 1.837
    CHANNELS 6 Xposition Yposition Zposition Zrotation Xrotation Yrotation
    JOINT LeftLeg
    {
      OFFSET 0.000 -54.287 0.000
      CHANNELS 6 Xposition Yposition Zposition Zrotation Xrotation Yrotation
      JOINT LeftFoot
      {
        OFFSET -0.000 -44.099 -0.000
        CHANNELS 6 Xposition Yposition Zposition Zrotation Xrotation Yrotation
        End Site
        {
          OFFSET 0.000 -9.637 5.564
        }
      }
    }
  }
  JOINT RightUpLeg
  {
    OFFSET -7.598 -7.719 1.494
    CHANNELS 6 Xposition Yposition Zposition Zrotation Xrotation Yrotation
    JOINT RightLeg
    {
      OFFSET 0.000 -55.647 0.000
      CHANNELS 6 Xposition Yposition Zposition Zrotation Xrotation Yrotation
      JOINT RightFoot
      {
        OFFSET -0.000 -43.787 -0.000
        CHANNELS 6 Xposition Yposition Zposition Zrotation Xrotation Yrotation
        End Site
        {
          OFFSET 0.000 -9.922 5.729
        }
      }
    }
  }
  JOINT Spine
  {
    OFFSET 0.000 5.950 -5.950
    CHANNELS 6 Xposition Yposition Zposition Zrotation Xrotation Yrotation
    JOINT LeftShoulder
    {
      OFFSET -0.000 32.715 0.000
      CHANNELS 6 Xposition Yposition Zposition Zrotation Xrotation Yrotation
      JOINT LeftArm
      {
        OFFSET 17.533 0.000 -0.000
        CHANNELS 6 Xposition Yposition Zposition Zrotation Xrotation Yrotation
        JOINT LeftForeArm
        {
          OFFSET 26.591 0.000 0.000
          CHANNELS 6 Xposition Yposition Zposition Zrotation Xrotation Yrotation
          JOINT LeftHand
          {
            OFFSET 26.328 0.000 -0.000
            CHANNELS 6 Xposition Yposition Zposition Zrotation Xrotation Yrotation
            JOINT LeftHandThumb1
            {
            OFFSET 4.970 -0.620 3.390
            CHANNELS 6 Xposition Yposition Zposition Zrotation Xrotation Yrotation
              JOINT LeftHandThumb2
              {
              OFFSET 2.150 -0.000 0.000
              CHANNELS 6 Xposition Yposition Zposition Zrotation Xrotation Yrotation
                JOINT LeftHandThumb3
                {
                OFFSET 2.200 -0.000 0.000
                CHANNELS 6 Xposition Yposition Zposition Zrotation Xrotation Yrotation
                  JOINT LeftHandThumb4
                  {
                  OFFSET 1.700 -0.000 0.000
                  CHANNELS 6 Xposition Yposition Zposition Zrotation Xrotation Yrotation
                  }
                }
              }
            }
            JOINT LeftHandIndex1
            {
            OFFSET 8.730 0.680 2.070
            CHANNELS 6 Xposition Yposition Zposition Zrotation Xrotation Yrotation
              JOINT LeftHandIndex2
              {
              OFFSET 2.670 -0.000 0.000
              CHANNELS 6 Xposition Yposition Zposition Zrotation Xrotation Yrotation
                JOINT LeftHandIndex3
                {
                OFFSET 2.130 -0.000 0.000
                CHANNELS 6 Xposition Yposition Zposition Zrotation Xrotation Yrotation
                  JOINT LeftHandIndex4
                  {
                  OFFSET 1.800 -0.000 0.000
                  CHANNELS 6 Xposition Yposition Zposition Zrotation Xrotation Yrotation
                  }
                }
              }
            }
            JOINT LeftHandMiddle1
            {
            OFFSET 9.220 0.670 0.550
            CHANNELS 6 Xposition Yposition Zposition Zrotation Xrotation Yrotation
              JOINT LeftHandMiddle2
              {
              OFFSET 2.660 -0.000 0.000
              CHANNELS 6 Xposition Yposition Zposition Zrotation Xrotation Yrotation
                JOINT LeftHandMiddle3
                {
                OFFSET 2.280 -0.000 0.000
                CHANNELS 6 Xposition Yposition Zposition Zrotation Xrotation Yrotation
                  JOINT LeftHandMiddle4
                  {
                  OFFSET 1.500 -0.000 0.000
                  CHANNELS 6 Xposition Yposition Zposition Zrotation Xrotation Yrotation
                  }
                }
              }
            }
            JOINT LeftHandRing1
            {
            OFFSET 9.250 0.670 -1.130
            CHANNELS 6 Xposition Yposition Zposition Zrotation Xrotation Yrotation
              JOINT LeftHandRing2
              {
              OFFSET 2.470 -0.000 0.000
              CHANNELS 6 Xposition Yposition Zposition Zrotation Xrotation Yrotation
                JOINT LeftHandRing3
                {
                OFFSET 2.210 -0.000 0.000
                CHANNELS 6 Xposition Yposition Zposition Zrotation Xrotation Yrotation
                  JOINT LeftHandRing4
                  {
                  OFFSET 1.800 -0.000 0.000
                  CHANNELS 6 Xposition Yposition Zposition Zrotation Xrotation Yrotation
                  }
                }
              }
            }
            JOINT LeftHandPinky1
            {
            OFFSET 9.350 0.660 -2.720
            CHANNELS 6 Xposition Yposition Zposition Zrotation Xrotation Yrotation
              JOINT LeftHandPinky2
              {
              OFFSET 1.630 -0.000 0.000
              CHANNELS 6 Xposition Yposition Zposition Zrotation Xrotation Yrotation
                JOINT LeftHandPinky3
                {
                OFFSET 1.710 -0.000 0.000
                CHANNELS 6 Xposition Yposition Zposition Zrotation Xrotation Yrotation
                  JOINT LeftHandPinky4
                  {
                  OFFSET 1.800 -0.000 0.000
                  CHANNELS 6 Xposition Yposition Zposition Zrotation Xrotation Yrotation
                  }
                }
              }
            }
          }
        }
      }
    }
    JOINT RightShoulder
    {
      OFFSET -0.000 32.715 0.000
      CHANNELS 6 Xposition Yposition Zposition Zrotation Xrotation Yrotation
      JOINT RightArm
      {
        OFFSET -18.619 0.000 -0.000
        CHANNELS 6 Xposition Yposition Zposition Zrotation Xrotation Yrotation
        JOINT RightForeArm
        {
          OFFSET -26.743 0.000 0.000
          CHANNELS 6 Xposition Yposition Zposition Zrotation Xrotation Yrotation
          JOINT RightHand
          {
            OFFSET -26.288 -0.000 -0.000
            CHANNELS 6 Xposition Yposition Zposition Zrotation Xrotation Yrotation
            JOINT RightHandThumb1
            {
            OFFSET -4.970 -0.620 3.390
            CHANNELS 6 Xposition Yposition Zposition Zrotation Xrotation Yrotation
              JOINT RightHandThumb2
              {
              OFFSET -2.150 0.000 0.000
              CHANNELS 6 Xposition Yposition Zposition Zrotation Xrotation Yrotation
                JOINT RightHandThumb3
                {
                OFFSET -2.200 0.000 0.000
                CHANNELS 6 Xposition Yposition Zposition Zrotation Xrotation Yrotation
                  JOINT RightHandThumb4
                  {
                  OFFSET -1.700 0.000 0.000
                  CHANNELS 6 Xposition Yposition Zposition Zrotation Xrotation Yrotation
                  }
                }
              }
            }
            JOINT RightHandIndex1
            {
            OFFSET -8.730 0.680 2.070
            CHANNELS 6 Xposition Yposition Zposition Zrotation Xrotation Yrotation
              JOINT RightHandIndex2
              {
              OFFSET -2.670 0.000 0.000
              CHANNELS 6 Xposition Yposition Zposition Zrotation Xrotation Yrotation
                JOINT RightHandIndex3
                {
                OFFSET -2.130 0.000 0.000
                CHANNELS 6 Xposition Yposition Zposition Zrotation Xrotation Yrotation
                  JOINT RightHandIndex4
                  {
                  OFFSET -1.800 0.000 0.000
                  CHANNELS 6 Xposition Yposition Zposition Zrotation Xrotation Yrotation
                  }
                }
              }
            }
            JOINT RightHandMiddle1
            {
            OFFSET -9.220 0.670 0.550
            CHANNELS 6 Xposition Yposition Zposition Zrotation Xrotation Yrotation
              JOINT RightHandMiddle2
              {
              OFFSET -2.660 0.000 0.000
              CHANNELS 6 Xposition Yposition Zposition Zrotation Xrotation Yrotation
                JOINT RightHandMiddle3
                {
                OFFSET -2.280 0.000 0.000
                CHANNELS 6 Xposition Yposition Zposition Zrotation Xrotation Yrotation
                  JOINT RightHandMiddle4
                  {
                  OFFSET -1.500 0.000 0.000
                  CHANNELS 6 Xposition Yposition Zposition Zrotation Xrotation Yrotation
                  }
                }
              }
            }
            JOINT RightHandRing1
            {
            OFFSET -9.250 0.670 -1.130
            CHANNELS 6 Xposition Yposition Zposition Zrotation Xrotation Yrotation
              JOINT RightHandRing2
              {
              OFFSET -2.470 0.000 0.000
              CHANNELS 6 Xposition Yposition Zposition Zrotation Xrotation Yrotation
                JOINT RightHandRing3
                {
                OFFSET -2.210 0.000 0.000
                CHANNELS 6 Xposition Yposition Zposition Zrotation Xrotation Yrotation
                  JOINT RightHandRing4
                  {
                  OFFSET -1.800 0.000 0.000
                  CHANNELS 6 Xposition Yposition Zposition Zrotation Xrotation Yrotation
                  }
                }
              }
            }
            JOINT RightHandPinky1
            {
            OFFSET -9.350 0.660 -2.720
            CHANNELS 6 Xposition Yposition Zposition Zrotation Xrotation Yrotation
              JOINT RightHandPinky2
              {
              OFFSET -1.630 0.000 0.000
              CHANNELS 6 Xposition Yposition Zposition Zrotation Xrotation Yrotation
                JOINT RightHandPinky3
                {
                OFFSET -1.710 0.000 0.000
                CHANNELS 6 Xposition Yposition Zposition Zrotation Xrotation Yrotation
                  JOINT RightHandPinky4
                  {
                  OFFSET -1.800 0.000 0.000
                  CHANNELS 6 Xposition Yposition Zposition Zrotation Xrotation Yrotation
                  }
                }
              }
            }
          }
        }
      }
    }
    JOINT Neck
    {
      OFFSET -0.000 32.715 0.000
      CHANNELS 6 Xposition Yposition Zposition Zrotation Xrotation Yrotation
      JOINT Head
      {
        OFFSET -0.000 22.603 -0.000
        CHANNELS 6 Xposition Yposition Zposition Zrotation Xrotation Yrotation
        End Site
        {
          OFFSET -0.000 0.090 -0.000
        }
      }
    }
  }
}
MOTION
Frames:	5
Frame Time:	0.0333333
-27.1835 22.606 -326.942 1.98404 16.0173 -0.850325 7.84566 -6.97503 3.48868 1.05602 -17.3766 -2.99943 2.98023e-06 -55.5185 2.38419e-05 -3.80425 4.54545 0.301927 -5.96046e-06 -39.313 2.38419e-05 7.33319 -25.3436 6.99522 -8.05084 -7.63227 2.72934 1.45206 -9.52624 -2.84634 -5.96046e-06 -57.0667 4.76837e-05 3.62036 -4.86824 0.307647 2.38419e-05 -36.8967 -2.38419e-05 9.2265 -31.4752 9.44725 0 5.65799 -5.65803 -0.908708 -16.0862 1.54999 -5.96046e-06 32.7153 9.53674e-05 -16.7948 8.77786e-06 -6.57866 17.9283 2.38419e-05 -4.76837e-05 -57.4441 33.0811 -10.0854 25.9329 -1.19209e-05 -9.53674e-05 3.8151e-06 0 -26.472 25.3209 2.38419e-05 7.15256e-05 -9.60515 0.121677 -5.91908 0.0062 0.0497 0.0339 0 0 0 0 0.0215 0 0 0 0 0 0.022 0 0 0 0 0 0.017 0 0 0 0 -0.0068 0.0873 0.0207 0 0 0 0 0.0267 0 0 0 0 0 0.0213 0 0 0 0 0 0.018 0 0 0 0 -0.0067 0.0922 0.0055 0 0 0 0 0.0266 0 0 0 0 0 0.0228 0 0 0 0 0 0.015 0 0 0 0 -0.0067 0.0925 -0.0113 0 0 0 0 0.0247 0 0 0 0 0 0.0221 0 0 0 0 0 0.018 0 0 0 0 -0.0066 0.0935 -0.0272 0 0 0 0 0.0163 0 0 0 0 0 0.0171 0 0 0 0 0 0.018 0 0 0 0 -5.96046e-06 32.7153 9.53674e-05 23.1733 -5.14932e-06 6.01582 -19.5985 -5.96046e-06 -9.53674e-05 51.1869 28.863 8.40122 -24.3743 2.38419e-05 -2.38419e-05 9.83485e-06 3.41509e-06 29.3831 -23.782 -2.38419e-05 7.15256e-05 8.49117 0.24138 7.11265 -0.0062 0.0497 0.0339 0 0 0 0 0.0215 0 0 0 0 0 0.022 0 0 0 0 0 0.017 0 0 0 0 0.0068 0.0873 0.0207 0 0 0 0 0.0267 0 0 0 0 0 0.0213 0 0 0 0 0 0.018 0 0 0 0 0.0067 0.0922 0.0055 0 0 0 0 0.0266 0 0 0 0 0 0.0228 0 0 0 0 0 0.015 0 0 0 0 0.0067 0.0925 -0.0113 0 0 0 0 0.0247 0 0 0 0 0 0.0221 0 0 0 0 0 0.018 0 0 0 0 0.0066 0.0935 -0.0272 0 0 0 0 0.0163 0 0 0 0 0 0.0171 0 0 0 0 0 0.018 0 0 0 0 -5.96046e-06 32.7153 9.53674e-05 0.196744 3.99437 -0.0137041 -1.49012e-06 24.2458 4.76837e-05 9.94513e-06 -1.10991e-05 -3.20165e-07 
-26.9189 22.5157 -326.628 2.24112 13.2223 -0.308574 7.87038 -7.17199 3.30236 0.350064 -13.4087 -3.61067 8.9407e-06 -55.682 -7.15256e-05 -3.25381 4.74355 0.269364 -2.98023e-06 -38.8068 4.76837e-05 6.81118 -27.1913 6.62191 -8.1396 -7.64209 2.35229 1.0773 -6.34211 -3.44034 -5.96046e-06 -57.1723 0 3.50352 -6.18626 0.37801 0 -36.649 9.53674e-05 8.21461 -30.5233 8.34046 -2.98023e-06 5.80967 -5.80966 -1.32229 -13.3697 1.69435 -1.49012e-06 32.7153 4.76837e-05 -16.7482 1.10991e-05 -7.49941 17.9778 -2.38419e-05 -4.76837e-05 -57.3288 35.1237 -9.3578 25.6948 4.76837e-05 4.76837e-05 -5.69553e-06 0 -25.9188 25.3768 -2.38419e-05 -2.38419e-05 -11.2953 0.0519309 -4.53043 0.0062 0.0497 0.0339 0 0 0 0 0.0215 0 0 0 0 0 0.022 0 0 0 0 0 0.017 0 0 0 0 -0.0068 0.0873 0.0207 0 0 0 0 0.0267 0 0 0 0 0 0.0213 0 0 0 0 0 0.018 0 0 0 0 -0.0067 0.0922 0.0055 0 0 0 0 0.0266 0 0 0 0 0 0.0228 0 0 0 0 0 0.015 0 0 0 0 -0.0067 0.0925 -0.0113 0 0 0 0 0.0247 0 0 0 0 0 0.0221 0 0 0 0 0 0.018 0 0 0 0 -0.0066 0.0935 -0.0272 0 0 0 0 0.0163 0 0 0 0 0 0.0171 0 0 0 0 0 0.018 0 0 0 0 -1.49012e-06 32.7153 4.76837e-05 23.8786 -2.29452e-06 6.85684 -19.6533 0 -7.15256e-05 51.632 31.2474 7.37288 -24.3183 -3.57628e-05 4.76837e-05 4.41041e-06 -5.12264e-06 26.0953 -24.8556 1.19209e-05 -2.38419e-05 9.66128 0.057684 3.89711 -0.0062 0.0497 0.0339 0 0 0 0 0.0215 0 0 0 0 0 0.022 0 0 0 0 0 0.017 0 0 0 0 0.0068 0.0873 0.0207 0 0 0 0 0.0267 0 0 0 0 0 0.0213 0 0 0 0 0 0.018 0 0 0 0 0.0067 0.0922 0.0055 0 0 0 0 0.0266 0 0 0 0 0 0.0228 0 0 0 0 0 0.015 0 0 0 0 0.0067 0.0925 -0.0113 0 0 0 0 0.0247 0 0 0 0 0 0.0221 0 0 0 0 0 0.018 0 0 0 0 0.0066 0.0935 -0.0272 0 0 0 0 0.0163 0 0 0 0 0 0.0171 0 0 0 0 0 0.018 0 0 0 0 -1.49012e-06 32.7153 4.76837e-05 -0.403789 3.38879 0.0238693 8.9407e-06 24.6143 -7.15256e-05 1.00518e-05 -1.02453e-05 5.33608e-07 
-26.9189 22.5157 -326.628 2.24112 13.2223 -0.308574 7.87038 -7.17199 3.30236 0.350064 -13.4087 -3.61067 8.9407e-06 -55.682 -7.15256e-05 -3.25381 4.74355 0.269364 -2.98023e-06 -38.8068 4.76837e-05 6.81118 -27.1913 6.62191 -8.1396 -7.64209 2.35229 1.0773 -6.34211 -3.44034 -5.96046e-06 -57.1723 0 3.50352 -6.18626 0.37801 0 -36.649 9.53674e-05 8.21461 -30.5233 8.34046 -2.98023e-06 5.80967 -5.80966 -1.32229 -13.3697 1.69435 -1.49012e-06 32.7153 4.76837e-05 -16.7482 1.10991e-05 -7.49941 17.9778 -2.38419e-05 -4.76837e-05 -57.3288 35.1237 -9.3578 25.6948 4.76837e-05 4.76837e-05 -5.69553e-06 0 -25.9188 25.3768 -2.38419e-05 -2.38419e-05 -11.2953 0.0519309 -4.53043 0.0062 0.0497 0.0339 0 0 0 0 0.0215 0 0 0 0 0 0.022 0 0 0 0 0 0.017 0 0 0 0 -0.0068 0.0873 0.0207 0 0 0 0 0.0267 0 0 0 0 0 0.0213 0 0 0 0 0 0.018 0 0 0 0 -0.0067 0.0922 0.0055 0 0 0 0 0.0266 0 0 0 0 0 0.0228 0 0 0 0 0 0.015 0 0 0 0 -0.0067 0.0925 -0.0113 0 0 0 0 0.0247 0 0 0 0 0 0.0221 0 0 0 0 0 0.018 0 0 0 0 -0.0066 0.0935 -0.0272 0 0 0 0 0.0163 0 0 0 0 0 0.0171 0 0 0 0 0 0.018 0 0 0 0 -1.49012e-06 32.7153 4.76837e-05 23.8786 -2.29452e-06 6.85684 -19.6533 0 -7.15256e-05 51.632 31.2474 7.37288 -24.3183 -3.57628e-05 4.76837e-05 4.41041e-06 -5.12264e-06 26.0953 -24.8556 1.19209e-05 -2.38419e-05 9.66128 0.057684 3.89711 -0.0062 0.0497 0.0339 0 0 0 0 0.0215 0 0 0 0 0 0.022 0 0 0 0 0 0.017 0 0 0 0 0.0068 0.0873 0.0207 0 0 0 0 0.0267 0 0 0 0 0 0.0213 0 0 0 0 0 0.018 0 0 0 0 0.0067 0.0922 0.0055 0 0 0 0 0.0266 0 0 0 0 0 0.0228 0 0 0 0 0 0.015 0 0 0 0 0.0067 0.0925 -0.0113 0 0 0 0 0.0247 0 0 0 0 0 0.0221 0 0 0 0 0 0.018 0 0 0 0 0.0066 0.0935 -0.0272 0 0 0 0 0.0163 0 0 0 0 0 0.0171 0 0 0 0 0 0.018 0 0 0 0 -1.49012e-06 32.7153 4.76837e-05 -0.403789 3.38879 0.0238693 8.9407e-06 24.6143 -7.15256e-05 1.00518e-05 -1.02453e-05 5.33608e-07 
-26.7934 22.4993 -326.505 2.19408 12.4923 -0.181084 7.8745 -7.21934 3.22931 0.25598 -12.3032 -3.63328 -5.96046e-06 -55.768 2.38419e-05 -3.1217 3.42744 0.186812 0 -38.7901 -4.76837e-05 6.57079 -27.7095 6.42563 -8.12882 -7.63721 2.26471 1.0951 -5.39316 -3.47065 -1.19209e-05 -57.3735 2.38419e-05 3.18731 -6.28704 0.349396 1.19209e-05 -36.5339 0 8.03131 -30.4365 8.14197 2.98023e-06 5.86329 -5.86324 -1.32525 -12.6261 1.60671 -1.49012e-06 32.7153 -7.15256e-05 -16.8128 1.21129e-05 -7.44955 18.0008 0 2.38419e-05 -57.4807 35.1062 -8.96333 25.8257 -4.76837e-05 -7.15256e-05 5.49425e-07 -6.83019e-06 -25.2945 25.4044 2.38419e-05 4.76837e-05 -11.4565 -0.0573107 -2.4782 0.0062 0.0497 0.0339 0 0 0 0 0.0215 0 0 0 0 0 0.022 0 0 0 0 0 0.017 0 0 0 0 -0.0068 0.0873 0.0207 0 0 0 0 0.0267 0 0 0 0 0 0.0213 0 0 0 0 0 0.018 0 0 0 0 -0.0067 0.0922 0.0055 0 0 0 0 0.0266 0 0 0 0 0 0.0228 0 0 0 0 0 0.015 0 0 0 0 -0.0067 0.0925 -0.0113 0 0 0 0 0.0247 0 0 0 0 0 0.0221 0 0 0 0 0 0.018 0 0 0 0 -0.0066 0.0935 -0.0272 0 0 0 0 0.0163 0 0 0 0 0 0.0171 0 0 0 0 0 0.018 0 0 0 0 -1.49012e-06 32.7153 -7.15256e-05 23.6375 -1.65419e-06 6.86932 -19.513 -2.38419e-05 0 51.7544 32.8935 7.44142 -24.6018 3.57628e-05 0 9.70788e-06 3.4151e-06 24.7871 -25.0244 -1.19209e-05 -4.76837e-05 9.75374 -0.00576143 2.64319 -0.0062 0.0497 0.0339 0 0 0 0 0.0215 0 0 0 0 0 0.022 0 0 0 0 0 0.017 0 0 0 0 0.0068 0.0873 0.0207 0 0 0 0 0.0267 0 0 0 0 0 0.0213 0 0 0 0 0 0.018 0 0 0 0 0.0067 0.0922 0.0055 0 0 0 0 0.0266 0 0 0 0 0 0.0228 0 0 0 0 0 0.015 0 0 0 0 0.0067 0.0925 -0.0113 0 0 0 0 0.0247 0 0 0 0 0 0.0221 0 0 0 0 0 0.018 0 0 0 0 0.0066 0.0935 -0.0272 0 0 0 0 0.0163 0 0 0 0 0 0.0171 0 0 0 0 0 0.018 0 0 0 0 -1.49012e-06 32.7153 -7.15256e-05 -0.911161 2.908 0.0462294 1.49012e-06 24.7418 -2.38419e-05 1.00785e-05 -9.8184e-06 1.06722e-07 
-26.6265 22.5021 -326.371 2.12357 11.8049 0.0138788 7.87341 -7.27138 3.14288 0.212999 -11.3274 -3.49799 -2.98023e-06 -55.8054 -2.38419e-05 -3.11643 2.40189 0.130734 0 -38.8251 -2.38419e-05 6.32305 -27.9471 6.20369 -8.11035 -7.63214 2.20668 1.05217 -4.50948 -3.35969 -1.19209e-05 -57.5054 0 2.98791 -6.34104 0.330298 1.19209e-05 -36.4392 4.76837e-05 7.8986 -30.4608 8.00363 5.96046e-06 5.91117 -5.91121 -1.27573 -11.9231 1.48946 -2.98023e-06 32.7153 0 -16.9332 1.25398e-05 -7.38252 18.111 5.96046e-06 7.15256e-05 -57.8095 34.8998 -8.52257 26.0089 -2.38419e-05 2.38419e-05 -7.71101e-07 -1.70755e-06 -24.3032 25.2346 0 -1.19209e-05 -11.3451 -0.0442722 -2.73606 0.0062 0.0497 0.0339 0 0 0 0 0.0215 0 0 0 0 0 0.022 0 0 0 0 0 0.017 0 0 0 0 -0.0068 0.0873 0.0207 0 0 0 0 0.0267 0 0 0 0 0 0.0213 0 0 0 0 0 0.018 0 0 0 0 -0.0067 0.0922 0.0055 0 0 0 0 0.0266 0 0 0 0 0 0.0228 0 0 0 0 0 0.015 0 0 0 0 -0.0067 0.0925 -0.0113 0 0 0 0 0.0247 0 0 0 0 0 0.0221 0 0 0 0 0 0.018 0 0 0 0 -0.0066 0.0935 -0.0272 0 0 0 0 0.0163 0 0 0 0 0 0.0171 0 0 0 0 0 0.018 0 0 0 0 -2.98023e-06 32.7153 0 23.3473 -1.60083e-06 6.89391 -19.3878 1.78814e-05 -2.38419e-05 51.8949 34.7678 7.37832 -24.8832 -3.57628e-05 4.76837e-05 1.12114e-06 1.70755e-06 23.4238 -25.13 3.57628e-05 2.38419e-05 9.52762 -0.0263705 2.06047 -0.0062 0.0497 0.0339 0 0 0 0 0.0215 0 0 0 0 0 0.022 0 0 0 0 0 0.017 0 0 0 0 0.0068 0.0873 0.0207 0 0 0 0 0.0267 0 0 0 0 0 0.0213 0 0 0 0 0 0.018 0 0 0 0 0.0067 0.0922 0.0055 0 0 0 0 0.0266 0 0 0 0 0 0.0228 0 0 0 0 0 0.015 0 0 0 0 0.0067 0.0925 -0.0113 0 0 0 0 0.0247 0 0 0 0 0 0.0221 0 0 0 0 0 0.018 0 0 0 0 0.0066 0.0935 -0.0272 0 0 0 0 0.0163 0 0 0 0 0 0.0171 0 0 0 0 0 0.018 0 0 0 0 -2.98023e-06 32.7153 0 -1.54745 2.54818 0.0688151 -1.3411e-05 24.8799 2.38419e-05 1.00852e-05 -1.04587e-05 -2.13443e-07 
